<svg version="1.1" xmlns="http://www.w3.org/2000/svg" xmlns:xlink="http://www.w3.org/1999/xlink" width="112.08285" height="104.17017" viewBox="0,0,112.08285,104.17017"><defs><linearGradient x1="187.17785" y1="194.08467" x2="192.06025" y2="198.96707" gradientUnits="userSpaceOnUse" id="color-1"><stop offset="0" stop-color="#808080"/><stop offset="1" stop-color="#404040"/></linearGradient><radialGradient cx="196.42857" cy="189.31158" r="5.07143" gradientUnits="userSpaceOnUse" id="color-2"><stop offset="0" stop-color="#404040"/><stop offset="1" stop-color="#808080"/></radialGradient><radialGradient cx="273.46875" cy="199.35817" r="8.29849" gradientUnits="userSpaceOnUse" id="color-3"><stop offset="0" stop-color="#80671c"/><stop offset="1" stop-color="#80671c" stop-opacity="0"/></radialGradient><radialGradient cx="221.07143" cy="160.66389" r="26.66173" gradientUnits="userSpaceOnUse" id="color-4"><stop offset="0" stop-color="#80671c"/><stop offset="1" stop-color="#80671c" stop-opacity="0"/></radialGradient><linearGradient x1="278.94194" y1="187.13481" x2="272.68964" y2="193.38712" gradientUnits="userSpaceOnUse" id="color-5"><stop offset="0" stop-color="#808080"/><stop offset="1" stop-color="#404040"/></linearGradient><radialGradient cx="288.63158" cy="202.55044" r="4.92105" gradientUnits="userSpaceOnUse" id="color-6"><stop offset="0" stop-color="#404040"/><stop offset="1" stop-color="#808080"/></radialGradient><radialGradient cx="219.46154" cy="176.51828" r="1.80769" gradientUnits="userSpaceOnUse" id="color-7"><stop offset="0" stop-color="#ffffff"/><stop offset="1" stop-color="#ffffff" stop-opacity="0"/></radialGradient><radialGradient cx="243.03213" cy="177.45946" r="1.80769" gradientUnits="userSpaceOnUse" id="color-8"><stop offset="0" stop-color="#ffffff"/><stop offset="1" stop-color="#ffffff" stop-opacity="0"/></radialGradient></defs><g transform="translate(-182.09477,-124.68246)"><g data-paper-data="{&quot;isPaintingLayer&quot;:true}" fill-rule="nonzero" stroke-linejoin="miter" stroke-miterlimit="10" stroke-dasharray="" stroke-dashoffset="0" style="mix-blend-mode: normal"><path d="M204.53575,195.12099c-6.13049,-0.80392 -3.98474,9.90117 -8.60836,-1.38162c-2.45528,-5.99148 8.12992,-14.74312 8.26972,-17.97086" data-paper-data="{&quot;index&quot;:null}" fill="#80671c" stroke="#594942" stroke-width="2.5" stroke-linecap="butt"/><path d="M276.86364,177.04724c-4.91793,-0.01262 -5.8061,-13.56042 -4.09091,-22.36363c0.25194,-1.29309 4.14373,-9.27179 12,-9.54546c5.47464,-0.1907 5.22652,6.01836 5,7.36364c-0.20497,1.21725 -3.84241,-6.77948 -9.80437,2.97231c-1.69705,2.77581 2.73901,6.91344 1.76823,10.99129c-1.68352,7.07181 -3.0518,10.58653 -4.87295,10.58186z" fill="#80671c" stroke="#594942" stroke-width="2.5" stroke-linecap="butt"/><path d="M182.57902,198.82925c0.73698,-0.90317 8.84196,-10.22582 8.84196,-10.22582l6.78717,4.3586c0,0 -9.54517,11.10213 -13.29273,10.31687c-0.59564,-0.12481 -0.01187,-1.8062 -0.76897,-2.88249c-0.67326,-0.9571 -1.87971,-1.18446 -1.56743,-1.56716z" fill="url(#color-1)" stroke="#000000" stroke-width="1.25" stroke-linecap="butt"/><path d="M191.35715,189.31158c0,-2.28804 2.27055,-4.14286 5.07143,-4.14286c2.80087,0 5.07143,1.85482 5.07143,4.14286c0,2.28804 -2.27056,4.14285 -5.07143,4.14285c-2.80087,0 -5.07143,-1.85482 -5.07143,-4.14285z" fill="url(#color-2)" stroke="#000000" stroke-width="1.25" stroke-linecap="butt"/><path d="M207.90024,202.41751c0.02417,-1.45068 1.07307,1.73037 7.67054,5.13506c5.33437,2.75286 11.27271,2.11448 10.55392,4.39319c-0.75023,2.3784 -0.51493,3.6174 -5.50321,7.86863c-4.52862,3.85949 -11.34321,6.73429 -13.4795,6.36909c-0.84722,-0.14484 0.56326,-12.06164 0.75825,-23.76596z" data-paper-data="{&quot;index&quot;:null}" fill="#80671c" stroke="#594942" stroke-width="2.5" stroke-linecap="butt"/><path d="M230.41886,227.60264c-4.83981,-1.88995 -4.29427,-9.50965 -3.90431,-14.47448c0.18448,-2.34879 4.80894,-1.15189 8.29371,-0.78655c8.62547,0.90428 12.45892,0.92191 10.73286,2.50568c-8.87248,8.14102 -10.36388,14.61351 -15.12225,12.75536z" data-paper-data="{&quot;index&quot;:null}" fill="#80671c" stroke="#594942" stroke-width="2.5" stroke-linecap="butt"/><path d="M204.18458,176.67627c0,-8.8296 -0.59278,-15.80913 3.6457,-22.23726c5.61491,-8.51566 17.82108,-15.18284 32.6043,-15.26274c14.05437,-0.07596 22.07885,4.36456 27.95005,10.30313c7.20623,7.28892 8.63329,15.67284 8.63329,27.19687c0,10.82323 -0.15411,22.50643 -5.93367,29.85845c-5.97996,7.60694 -20.97545,7.30822 -30.483,7.30822c-11.28893,0 -35.09865,-5.41628 -36.05782,-15.97208c-0.55419,-6.09895 -0.35885,-12.18943 -0.35885,-21.19459z" fill="#ffce39" stroke="none" stroke-width="0" stroke-linecap="butt"/><path d="M266.1875,203.96697c0.01318,-3.29528 -5.01135,-2.81868 -5.03174,-9.17659c-0.00097,-0.30254 4.92345,2.3958 8.98931,3.09377c3.89528,0.66868 4.86783,0.2237 4.86783,0.2237c0,0 -1.93495,11.16877 -11.79365,13.25595c-0.02276,0.00482 2.95748,-4.70325 2.96826,-7.39683z" fill="url(#color-3)" stroke="none" stroke-width="0" stroke-linecap="butt"/><path d="M205.45,160.3358c0,0 -0.90681,-10.57646 19.70153,-18.497c10.24881,-3.93899 24.67477,-3.14617 24.89847,-1.503c0.78497,5.76589 -2.1,7.4 -2.1,7.4c0,0 1.61029,1.1375 3.89537,1.22513c2.03607,0.07809 4.33151,-1.76583 5.47564,0.20163c4.51151,7.75803 -2.97101,12.67324 -2.97101,12.67324z" fill="url(#color-4)" stroke="none" stroke-width="0" stroke-linecap="butt"/><path d="M204.18458,176.67627c0,-8.8296 -0.59278,-15.80913 3.6457,-22.23726c5.61491,-8.51566 17.82108,-15.18284 32.6043,-15.26274c14.05437,-0.07596 22.07885,4.36456 27.95005,10.30313c7.20623,7.28892 8.63329,15.67284 8.63329,27.19687c0,10.82323 -0.15411,22.50643 -5.93367,29.85845c-5.97996,7.60694 -20.97545,7.30822 -30.483,7.30822c-11.28893,0 -35.09865,-5.41628 -36.05782,-15.97208c-0.55419,-6.09895 -0.35885,-12.18943 -0.35885,-21.19459z" fill="none" stroke="#594942" stroke-width="2.5" stroke-linecap="butt"/><path d="M271.08425,206.53472c-2.1425,2.72541 -5.44227,4.43602 -9.2323,5.50915c-2.59254,0.73406 9.63858,13.67596 0.91435,13.84476c-16.24318,0.31429 -14.67014,-12.08319 -17.2511,-12.05624c-1.73851,0.01816 -3.39616,0.01054 -4.91395,0.01054" fill="#ffce39" stroke="#594942" stroke-width="2.5" stroke-linecap="butt"/><path d="M204.18458,176.67627c0,-2.90824 -0.06431,-5.61577 0.00089,-8.16899c0.13275,-5.19853 1.80238,-15.39376 4.64481,-19.70463c2.84243,-4.31087 3.73848,6.62762 4.85137,6.77772c1.1129,0.15009 3.86542,-14.46132 16.60915,-22.99572c2.85294,-1.9106 2.64729,-6.91162 12.07452,-6.64167c8.28064,0.23711 7.87087,8.74797 6.7531,8.89105c-0.72356,0.09262 -3.8042,-5.09954 -6.74712,-4.89514c-3.70684,0.25746 -5.98683,5.31775 -5.6166,5.67375c2.22759,2.14194 9.22173,9.67061 9.10218,11.48736c-0.03016,0.45834 -6.95872,0.16715 -7.30477,-0.18231c-2.80367,-2.8313 -5.95493,-7.62989 -6.08023,-7.4945c-9.13709,9.87205 -3.95334,20.71284 -3.1655,20.69601c1.91161,-0.04083 4.42086,-6.2847 12.71151,-5.96316c1.90439,0.07386 0.43466,5.98129 2.32578,6.11116c1.84419,0.12664 9.73128,-20.27968 9.79095,2.08722" fill="#ffce39" stroke="#594942" stroke-width="2.5" stroke-linecap="butt"/><path d="M266.40123,178.57532c2.42557,5.81818 14.6957,5.25453 12.13637,14.22727c-3.01532,10.57138 -16.16534,2.22727 -18.5,1.22727" fill="#ffce39" stroke="#594942" stroke-width="2.5" stroke-linecap="butt"/><path d="M195.40477,189.24015c0,-1.67001 1.20401,-3.02381 2.68924,-3.02381c1.48523,0 2.68924,1.3538 2.68924,3.02381c0,1.67001 -1.20401,3.02381 -2.68924,3.02381c-1.48523,0 -2.68924,-1.3538 -2.68924,-3.02381z" fill="#000000" stroke="#000000" stroke-width="1.25" stroke-linecap="butt"/><path d="M273.26858,188.08218c1.09264,-1.14253 3.13121,-2.7649 4.99111,-1.33658c1.3306,1.02185 0.49985,2.16434 5.94542,5.81026c2.02893,1.35841 9.3546,4.88468 5,11.19969c-3.58503,5.19897 -8.1754,0.33761 -12.25232,-3.47369c-2.7242,-2.54672 -2.85363,-2.85778 -4.77816,-7.51077c-1.03817,-2.51003 -0.26896,-3.26378 1.09395,-4.68891z" fill="url(#color-5)" stroke="#000000" stroke-width="1.25" stroke-linecap="butt"/><path d="M283.71053,202.55044c0,-3.24104 2.20323,-5.86842 4.92105,-5.86842c2.71782,0 4.92105,2.62738 4.92105,5.86842c0,3.24104 -2.20323,5.86842 -4.92105,5.86842c-2.71782,0 -4.92105,-2.62738 -4.92105,-5.86842z" fill="url(#color-6)" stroke="#000000" stroke-width="1.25" stroke-linecap="butt"/><path d="M287.44737,202.9335c0,-1.35972 0.66746,-2.462 1.4908,-2.462c0.82335,0 1.49079,1.10227 1.49079,2.462c0,1.35972 -0.66744,2.46201 -1.49079,2.46201c-0.82335,0 -1.4908,-1.10228 -1.4908,-2.46201z" fill="#000000" stroke="#000000" stroke-width="1.25" stroke-linecap="butt"/><path d="M222.07208,199.96211c-0.9307,-0.96737 -0.36771,-5.90769 7.16667,-5.79167c4.40053,0.06777 6.44037,5.08951 6.41667,5.41667c-0.03177,0.43846 -5.8126,0.15755 -8.46831,0.50766c-3.40586,0.44901 -3.84221,1.19029 -5.11502,-0.13266z" fill="#ffffff" stroke="#594942" stroke-width="2.5" stroke-linecap="butt"/><path d="M208.23333,186.86667c0.83702,-2.53904 1.59632,-2.05159 1.91023,-4.99869c0.6327,-5.94 -0.88913,-12.37616 0.9231,-13.72353c0.67635,-0.50286 0.87835,1.09583 4.54248,1.95982c2.1081,0.49708 6.24019,0.59414 6.2353,0.92907c-0.05556,3.8039 0.71585,19.77778 -2.44444,19.77778c-1.27868,0 -3.61626,-1.39835 -5.72277,-1.99807c-3.0998,-0.8825 -5.94903,-0.41409 -5.44389,-1.94638z" fill="#ffffff" stroke="none" stroke-width="0" stroke-linecap="butt"/><path d="M221.64821,181.25227c-0.35402,5.282 -1.56424,9.5032 -2.70309,9.42831c-1.13885,-0.07489 -1.77509,-4.41751 -1.42107,-9.69951c0.35402,-5.282 1.56424,-9.5032 2.70309,-9.42831c1.13885,0.07489 1.77509,4.41751 1.42107,9.69951z" fill="#594942" stroke="#594942" stroke-width="2.5" stroke-linecap="butt"/><path d="M221.51112,172.86666c0,0 -2.83841,0.18666 -4.53971,-0.32997c-1.8268,-0.55473 1.09333,-1.49285 -5.79363,-2.83669" fill="none" stroke="#594942" stroke-width="2.5" stroke-linecap="round"/><path d="M217.65385,176.51828c0,-0.99836 0.80933,-1.80769 1.80769,-1.80769c0.99836,0 1.80769,0.80933 1.80769,1.80769c0,0.99836 -0.80933,1.80769 -1.80769,1.80769c-0.99836,0 -1.80769,-0.80933 -1.80769,-1.80769z" fill="url(#color-7)" stroke="none" stroke-width="0" stroke-linecap="butt"/><path d="M208.23334,186.16667c0.83702,-2.53904 1.59632,-1.35159 1.91023,-4.29869c0.6327,-5.94001 -0.88913,-12.37616 0.9231,-13.72353c0.67636,-0.50286 0.87835,1.09584 4.54248,1.95982c2.1081,0.49708 6.24019,0.59414 6.2353,0.92907c-0.05555,3.8039 0.71585,19.77778 -2.44445,19.77778c-1.27868,0 -3.51625,-1.79835 -5.62277,-2.39807c-3.0998,-0.88251 -6.04903,-0.71409 -5.54389,-2.24638z" fill="none" stroke="#594942" stroke-width="2.5" stroke-linecap="butt"/><path d="M236.20294,190.51471c-1.87216,-0.32844 -1.64955,-13.79478 -0.55294,-15.06471c0.32646,-0.37805 2.64119,0.54299 7.66451,-3.18606c3.0068,-2.23209 6.56462,-2.28203 7.43549,-1.81394c1.98099,1.06476 3.42568,16.04941 2.84706,16.88824c-0.72172,1.04629 -10.0717,4.46105 -17.39412,3.17647z" fill="#ffffff" stroke="none" stroke-width="0" stroke-linecap="butt"/><path d="M236.20294,190.51471c-1.39941,-0.085 -1.64955,-13.79478 -0.55294,-15.06471c0.32646,-0.37805 2.6412,0.543 7.66452,-3.18606c3.0068,-2.2321 6.56461,-2.28203 7.43548,-1.81394c1.98099,1.06476 4.36264,13.45779 2.84706,16.88824c-1.16794,2.64358 -3.39469,0.48568 -5.69087,1.19854c-3.55594,1.10395 3.54444,2.9041 -11.70325,1.97793z" fill="none" stroke="#594942" stroke-width="2.5" stroke-linecap="butt"/><path d="M241.47782,182.73513c-0.55703,-3.90469 -0.04325,-7.16132 1.14757,-7.27389c1.19082,-0.11257 2.60773,2.96154 3.16477,6.86623c0.55703,3.90469 0.04325,7.16132 -1.14757,7.27389c-1.19082,0.11257 -2.60773,-2.96154 -3.16477,-6.86623z" fill="#594942" stroke="#594942" stroke-width="2.5" stroke-linecap="butt"/><path d="M241.22444,177.45946c0,-0.99836 0.80933,-1.80769 1.80769,-1.80769c0.99836,0 1.80769,0.80933 1.80769,1.80769c0,0.99836 -0.80933,1.80769 -1.80769,1.80769c-0.99836,0 -1.80769,-0.80933 -1.80769,-1.80769z" fill="url(#color-8)" stroke="none" stroke-width="0" stroke-linecap="butt"/><path d="M236.10457,176.60777c0,0 3.97658,0.39191 6.82427,-1.63253c1.92756,-1.37032 3.5566,-1.98427 4.61651,-2.20954c2.77472,-0.58973 4.20629,-0.15794 4.20629,-0.15794" fill="none" stroke="#594942" stroke-width="2.5" stroke-linecap="round"/></g></g></svg>