<svg version="1.1" xmlns="http://www.w3.org/2000/svg" xmlns:xlink="http://www.w3.org/1999/xlink" width="105.06116" height="147.85734" viewBox="0,0,105.06116,147.85734"><g transform="translate(-187.46941,-96.51511)"><g data-paper-data="{&quot;isPaintingLayer&quot;:true}" fill-rule="nonzero" stroke-linejoin="miter" stroke-miterlimit="10" stroke-dasharray="" stroke-dashoffset="0" style="mix-blend-mode: normal"><path d="M285.19472,199.84434c10.8646,12.77739 4.9999,23.85806 -0.77868,22.21759c-6.16467,-1.75008 -4.34024,-5.98261 -11.43651,-16.64212c-3.18144,-4.77893 -10.45325,-15.73092 -4.13433,-17.00833c3.36196,-0.67964 11.76317,6.03905 16.34952,11.43286z" data-paper-data="{&quot;index&quot;:null}" fill="#f37b21" stroke="#590000" stroke-width="2.5" stroke-linecap="butt"/><path d="M238.58362,230.67802c0,-3.43644 3.45245,-3.22222 6.88889,-3.22222c3.43644,0 6.88889,-0.21422 6.88889,3.22222c0,3.43644 0.65867,11.33333 -2.77777,11.33333c-3.43644,0 -11,-7.89689 -11,-11.33333z" fill="#f37b21" stroke="#590000" stroke-width="2.5" stroke-linecap="butt"/><path d="M226.25029,231.90024c0,-3.43644 2.78578,-3.22222 6.22222,-3.22222c3.43644,0 6.22222,-0.21422 6.22222,3.22222c0,3.43644 -3.00801,11.22222 -6.44444,11.22222c-3.43644,0 -6,-7.78578 -6,-11.22222z" fill="#f37b21" stroke="#590000" stroke-width="2.5" stroke-linecap="butt"/><path d="M201.22251,201.38083c-0.4196,-9.03079 6.56324,-17.91626 7.35529,-19.02982c0.27424,-0.38557 -2.26133,-9.21776 -4.36703,-11.9879c-3.82113,-5.02686 -6.92647,-14.72819 6.72152,-6.79014c4.27909,2.48884 -9.89915,-18.11169 1.30477,-16.89709c4.88111,0.52915 10.02977,11.10778 15.00499,11.19064c3.78618,0.06305 -0.45853,-12.83438 -11.32635,-35.96713c-0.13803,-0.23807 -12.97522,20.173 -13.1767,20.22769c-1.96088,0.53218 -6.99352,0.3599 -8.19889,0.3688c-3.06121,0.0226 17.61998,-29.9808 18.34286,-31.06474c0.41583,-0.62353 -1.66009,-5.80734 -2.7277,-5.93745c-0.75237,-0.09169 -6.66795,-0.02823 -6.69487,-0.19901c-0.04708,-0.29874 -0.38681,-7.5363 -0.10398,-7.52956c3.49822,0.08337 13.33084,-0.77411 13.69201,0.64578c1.1554,4.54218 24.82453,61.47526 37.88003,58.33896c5.4166,-1.30122 1.04145,-14.97607 6.53542,-14.28933c3.72095,0.46511 6.32991,12.56981 9.69862,30.82102c0.02622,0.14204 10.72476,11.49121 10.685,25.59927c-0.0519,18.41691 -12.89743,32.62929 -32.4,32.75c-13.86526,0.08582 -10.58091,-2.16334 -16.92629,-2.11691c-7.42531,0.05434 -14.46688,2.63739 -18.97219,-0.29632c-8.12622,-5.29152 -11.8371,-17.30357 -12.32651,-27.83677z" fill="#f37b21" stroke="#590000" stroke-width="2.5" stroke-linecap="butt"/><path d="M217.63544,196.73558c5.74459,2.92578 -4.19879,11.52546 -8.54567,15.27571c-9.69581,8.36501 -9.07374,12.93184 -15.48193,12.96394c-6.00685,0.03009 -8.68391,-12.21774 5.21027,-21.61205c5.86524,-3.96568 15.76094,-8.18425 18.81733,-6.6276z" fill="#f37b21" stroke="#590000" stroke-width="2.5" stroke-linecap="butt"/><path d="M239.02201,230.83824c-1.85373,-0.45434 -3.1735,-1.55567 -7.53567,-1.3174c-6.24647,0.34119 -10.80094,12.6256 -15.77436,12.16829c-4.95296,-0.45542 -2.02383,-12.35275 -3.4337,-13.42185c-4.17835,-3.16845 -6.7774,-8.8337 -6.7774,-8.8337" data-paper-data="{&quot;index&quot;:null}" fill="#f37b21" stroke="#590000" stroke-width="2.5" stroke-linecap="butt"/><g stroke="none" stroke-width="0" stroke-linecap="butt"><path d="M231.64751,201.08083c0,-3.78315 3.06685,-6.85 6.85,-6.85c3.78315,0 6.85,3.06685 6.85,6.85c0,3.78315 -3.06685,6.85 -6.85,6.85c-3.78315,0 -6.85,-3.06685 -6.85,-6.85z" fill="#ffffff"/><path d="M233.94751,200.83083c0,-2.81665 2.28335,-5.1 5.1,-5.1c2.81665,0 5.1,2.28335 5.1,5.1c0,2.81665 -2.28335,5.1 -5.1,5.1c-2.81665,0 -5.1,-2.28335 -5.1,-5.1z" fill="#590000"/></g><g stroke="none" stroke-width="0" stroke-linecap="butt"><path d="M260.39751,201.08083c0,-3.78315 3.06685,-6.85 6.85,-6.85c3.78315,0 6.85,3.06685 6.85,6.85c0,3.78315 -3.06685,6.85 -6.85,6.85c-3.78315,0 -6.85,-3.06685 -6.85,-6.85z" fill="#ffffff"/><path d="M262.69751,200.83083c0,-2.81665 2.28335,-5.1 5.1,-5.1c2.81665,0 5.1,2.28335 5.1,5.1c0,2.81665 -2.28335,5.1 -5.1,5.1c-2.81665,0 -5.1,-2.28335 -5.1,-5.1z" fill="#590000"/></g><path d="M244.52857,221.5325c-2.44688,-0.90861 -1.05023,-5.14231 -0.41142,-6.32974c0.31273,-0.58131 3.94338,0.37054 8.43632,0.74634c5.20882,0.43569 11.33086,0.39203 10.88511,0.96795c-0.7239,0.93529 -15.59581,5.84613 -18.91001,4.61545z" data-paper-data="{&quot;index&quot;:null}" fill="#ffffff" stroke="#590000" stroke-width="1.25" stroke-linecap="round"/><path d="M230.25,197.7145v-4.09721h45.59524v4.09721z" fill="#f37b21" stroke="none" stroke-width="0" stroke-linecap="butt"/><path d="M257.32597,219.25284l-6.42857,-0.42857" fill="none" stroke="#590000" stroke-width="1.25" stroke-linecap="round"/></g></g></svg>