<svg version="1.1" xmlns="http://www.w3.org/2000/svg" xmlns:xlink="http://www.w3.org/1999/xlink" width="105.06116" height="127.35241" viewBox="0,0,105.06116,127.35241"><g transform="translate(-187.46943,-116.48535)"><g data-paper-data="{&quot;isPaintingLayer&quot;:true}" fill-rule="nonzero" stroke-linejoin="miter" stroke-miterlimit="10" stroke-dasharray="" stroke-dashoffset="0" style="mix-blend-mode: normal"><path d="M285.19473,199.30964c10.8646,12.77739 4.9999,23.85806 -0.77868,22.21759c-6.16467,-1.75008 -4.34024,-5.98261 -11.43651,-16.64212c-3.18144,-4.77893 -10.45325,-15.73092 -4.13433,-17.00833c3.36196,-0.67964 11.76317,6.03905 16.34952,11.43286z" data-paper-data="{&quot;index&quot;:null}" fill="#ffce39" stroke="#594942" stroke-width="2.5" stroke-linecap="butt"/><path d="M238.58363,230.14332c0,-3.43644 3.45245,-3.22222 6.88889,-3.22222c3.43644,0 6.88889,-0.21422 6.88889,3.22222c0,3.43644 0.65867,11.33333 -2.77777,11.33333c-3.43644,0 -11,-7.89689 -11,-11.33333z" fill="#ffce39" stroke="#594942" stroke-width="2.5" stroke-linecap="butt"/><path d="M226.2503,231.36554c0,-3.43644 2.78578,-3.22222 6.22222,-3.22222c3.43644,0 6.22222,-0.21422 6.22222,3.22222c0,3.43644 -3.00801,11.22222 -6.44444,11.22222c-3.43644,0 -6,-7.78578 -6,-11.22222z" fill="#ffce39" stroke="#594942" stroke-width="2.5" stroke-linecap="butt"/><path d="M201.22253,200.84614c-0.4196,-9.03079 6.56324,-17.91626 7.35529,-19.02982c0.27424,-0.38557 -2.26133,-9.21776 -4.36703,-11.9879c-3.82113,-5.02686 -7.02538,-16.03975 4.29295,-8.50443c8.79061,5.85246 20.3692,-1.18815 20.93357,-6.27788c0.45534,-4.1064 -3.24686,-14.21887 -3.81801,-14.2592c-0.51216,-0.03616 -4.18117,9.26228 -10.12773,11.46328c-3.85762,1.42782 -9.12109,-0.57125 -6.83812,-3.99222c2.00439,-3.00354 3.39197,-1.7112 7.35439,-5.47091c5.05064,-4.79225 7.96534,-7.12867 -0.61716,-20.26326c-2.13556,-2.83669 1.67911,-6.30894 3.96111,-4.07479c28.75914,28.15618 31.00181,38.38419 34.71003,37.43281c5.01933,-1.28776 1.90812,-14.64274 7.40209,-13.956c3.72095,0.46511 6.32991,12.56981 9.69862,30.82102c0.02622,0.14204 10.72476,11.49121 10.685,25.59927c-0.0519,18.41691 -12.89743,32.62929 -32.4,32.75c-13.86526,0.08582 -10.58091,-2.16334 -16.92629,-2.11691c-7.42531,0.05434 -14.46688,2.63739 -18.97219,-0.29632c-8.12622,-5.29152 -11.8371,-17.30357 -12.32651,-27.83677z" fill="#ffce39" stroke="#594942" stroke-width="2.5" stroke-linecap="butt"/><path d="M217.63545,196.20088c5.74459,2.92578 -4.19879,11.52546 -8.54567,15.27571c-9.69581,8.36501 -9.07374,12.93184 -15.48193,12.96394c-6.00685,0.03009 -8.68391,-12.21774 5.21027,-21.61205c5.86524,-3.96568 15.76094,-8.18425 18.81733,-6.6276z" fill="#ffce39" stroke="#594942" stroke-width="2.5" stroke-linecap="butt"/><path d="M239.02202,230.30354c-1.85373,-0.45434 -3.1735,-1.55567 -7.53567,-1.3174c-6.24647,0.34119 -10.80094,12.6256 -15.77436,12.16829c-4.95296,-0.45542 -2.02383,-12.35275 -3.4337,-13.42185c-4.17835,-3.16845 -6.7774,-8.8337 -6.7774,-8.8337" data-paper-data="{&quot;index&quot;:null}" fill="#ffce39" stroke="#594942" stroke-width="2.5" stroke-linecap="butt"/><g stroke="none" stroke-width="0" stroke-linecap="butt"><path d="M231.64752,200.54613c0,-3.78315 3.06685,-6.85 6.85,-6.85c3.78315,0 6.85,3.06685 6.85,6.85c0,3.78315 -3.06685,6.85 -6.85,6.85c-3.78315,0 -6.85,-3.06685 -6.85,-6.85z" fill="#ffffff"/><path d="M233.94752,200.29613c0,-2.81665 2.28335,-5.1 5.1,-5.1c2.81665,0 5.1,2.28335 5.1,5.1c0,2.81665 -2.28335,5.1 -5.1,5.1c-2.81665,0 -5.1,-2.28335 -5.1,-5.1z" fill="#594942"/></g><g stroke="none" stroke-width="0" stroke-linecap="butt"><path d="M260.39752,200.54613c0,-3.78315 3.06685,-6.85 6.85,-6.85c3.78315,0 6.85,3.06685 6.85,6.85c0,3.78315 -3.06685,6.85 -6.85,6.85c-3.78315,0 -6.85,-3.06685 -6.85,-6.85z" fill="#ffffff"/><path d="M262.69752,200.29613c0,-2.81665 2.28335,-5.1 5.1,-5.1c2.81665,0 5.1,2.28335 5.1,5.1c0,2.81665 -2.28335,5.1 -5.1,5.1c-2.81665,0 -5.1,-2.28335 -5.1,-5.1z" fill="#594942"/></g><path d="M258.41002,219.69663c0,0 -3.51625,-0.40557 -4.91444,-0.88495c-1.50989,-0.51768 -3.83556,-2.11505 -3.83556,-2.11505" fill="none" stroke="#594942" stroke-width="1.25" stroke-linecap="round"/></g></g></svg>