<svg version="1.1" xmlns="http://www.w3.org/2000/svg" xmlns:xlink="http://www.w3.org/1999/xlink" width="107.62799" height="181.68345" viewBox="0,0,107.62799,181.68345"><defs><radialGradient cx="243.75002" cy="214.20129" r="9.9375" gradientUnits="userSpaceOnUse" id="color-1"><stop offset="0" stop-color="#ffce39"/><stop offset="1" stop-color="#ffce39" stop-opacity="0"/></radialGradient><radialGradient cx="243.75002" cy="214.20129" r="9.9375" gradientUnits="userSpaceOnUse" id="color-2"><stop offset="0" stop-color="#ffcd38" stop-opacity="0.74902"/><stop offset="1" stop-color="#ffcd38" stop-opacity="0"/></radialGradient></defs><g transform="translate(-182.16762,-62.37659)"><g data-paper-data="{&quot;isPaintingLayer&quot;:true}" fill-rule="nonzero" stroke-linejoin="miter" stroke-miterlimit="10" stroke-dasharray="" stroke-dashoffset="0" style="mix-blend-mode: normal"><path d="M279.58894,175.49763c8.26279,10.29643 8.39384,25.66277 8.95667,33.93308c0.8703,12.78842 -2.03419,23.87324 -6.46828,23.6757c-5.42887,-0.24186 -6.71676,-14.28788 -11.33598,-14.95681c-4.76483,-0.69001 0.83832,-11.40977 1.74054,-18.53197c1.28343,-10.13142 4.16836,-27.78196 7.10705,-24.12z" data-paper-data="{&quot;index&quot;:null}" fill="#ffce39" stroke="#594942" stroke-width="2.5" stroke-linecap="butt"/><path d="M221.59728,229.60085c-0.19808,-3.72944 2.83756,-3.65756 6.567,-3.85564c3.72944,-0.19808 7.52838,-0.66733 7.72646,3.06211c0.19808,3.72944 -3.40557,12.42863 -7.135,12.62673c-3.72944,0.19808 -6.96039,-8.10376 -7.15847,-11.8332z" fill="#ffce39" stroke="#594942" stroke-width="2.5" stroke-linecap="butt"/><path d="M193.01805,131.74754c-4.26177,-5.70849 -6.84154,-9.13232 -4.84381,-11.49547c2.60757,-3.08454 16.61509,6.85877 18.06825,4.07862c2.35387,-4.50336 -14.83955,-26.40371 -5.65416,-24.16131c8.5651,2.09096 18.76248,18.28067 20.13959,17.52809c7.42197,-4.05605 -8.26169,-35.30389 -14.04274,-35.74613c-4.32421,-0.3308 -7.28731,8.11469 -11.52501,13.40808c-0.49068,0.61292 -5.26516,-0.01982 -5.82724,-0.01469c-3.24695,0.02959 10.86656,-17.60628 11.6333,-19.02554c0.44106,-0.81642 -4.34887,-8.20484 -8.66329,-7.93876c-3.08961,0.19055 -5.68342,5.12706 -7.17864,7.24325c-1.73013,2.44865 -5.32678,-11.81668 8.98868,-11.99678c3.81512,0.14853 6.77853,1.04704 9.93661,6.03114c0.924,1.45826 2.43261,1.73845 4.66711,4.26394c17.34229,19.06371 17.05698,30.62901 32.99177,45.23795c5.12382,4.69749 8.03703,0.98598 8.84471,-3.44576c0.69175,-3.7956 -0.11306,-8.1195 1.44654,-8.14136c2.66068,-0.0373 8.80632,27.28723 18.69227,41.45013c7.453,10.67739 19.47286,41.09863 -0.31514,65.66299c-5.79805,7.19756 -18.81011,18.33599 -29.73453,17.39057c-63.08095,-5.45918 -55.15442,-35.52141 -55.00827,-40.75068c0.64472,-23.06953 21.20181,-41.06983 7.38402,-59.57829z" fill="#ffce39" stroke="#594942" stroke-width="2.5" stroke-linecap="butt"/><g stroke="none" stroke-width="0" stroke-linecap="butt"><path d="M223.34753,186.58083c0,-6.26843 5.08157,-11.35 11.35,-11.35c6.26843,0 11.35,5.08157 11.35,11.35c0,6.26843 -5.08157,11.35 -11.35,11.35c-6.26843,0 -11.35,-5.08157 -11.35,-11.35z" fill="#ffffff"/><path d="M224.50247,184.21887c0,-4.667 3.78336,-8.45037 8.45036,-8.45037c4.667,0 8.45037,3.78336 8.45037,8.45037c0,4.667 -3.78336,8.45037 -8.45037,8.45037c-4.667,0 -8.45036,-3.78336 -8.45036,-8.45037z" fill="#594942"/></g><g stroke="none" stroke-width="0" stroke-linecap="butt"><path d="M256.89736,189.66063c0.45603,-5.72614 4.91492,-9.97533 9.9592,-9.49083c5.04428,0.4845 8.7638,5.51923 8.30777,11.24537c-0.45603,5.72614 -4.91492,9.97534 -9.95921,9.49084c-5.04428,-0.4845 -8.7638,-5.51923 -8.30776,-11.24538z" fill="#ffffff"/><path d="M257.99861,187.59226c0.33953,-4.26326 3.65929,-7.4269 7.41488,-7.06617c3.75559,0.36073 6.52487,4.10921 6.18534,8.37247c-0.33953,4.26326 -3.65929,7.4269 -7.41488,7.06617c-3.75559,-0.36073 -6.52487,-4.10921 -6.18534,-8.37247z" fill="#594942"/></g><path d="M240.64232,232.0765c-5.65733,-0.4896 -10.74354,-1.17709 -15.31546,-2.02679c-3.32523,-0.61801 -8.47335,11.45675 -11.88139,11.80224c-2.44167,0.24752 -5.34598,-3.92932 -4.91924,-10.19987c0.17398,-2.5565 0.17204,-6.12722 -0.99672,-6.60345c-26.74565,-10.89808 -22.00814,-29.69109 -21.89545,-33.7228" fill="#ffce39" stroke="#594942" stroke-width="2.5" stroke-linecap="butt"/><path d="M266.37619,219.08393c-3.17195,3.14138 -7.16132,6.41917 -11.42855,8.9038c-0.06515,0.03794 -4.18818,1.23981 -0.26224,10.83355c0.32963,0.80552 0.49474,4.43709 -2.78058,3.94271c-7.92135,-1.19566 -7.27856,-3.48176 -11.0599,-8.13677c-2.47423,-3.0459 -2.77419,-2.79038 -3.1114,-2.82482c-3.0159,-0.30799 -5.86056,-0.67445 -8.54356,-1.09339" fill="#ffce39" stroke="#594942" stroke-width="2.5" stroke-linecap="butt"/><path d="M261.95845,209.99029c-2.38537,-0.48896 -5.84274,4.97449 -12.32233,4.72051c-16.93027,-0.66362 -22.67796,-8.59374 -22.67796,-8.59374" fill="none" stroke="#594942" stroke-width="1.25" stroke-linecap="round"/><path d="M233.81252,214.20129c0,-5.48833 4.44917,-9.9375 9.9375,-9.9375c5.48833,0 9.9375,4.44917 9.9375,9.9375c0,5.48833 -4.44917,9.9375 -9.9375,9.9375c-5.48833,0 -9.9375,-4.44917 -9.9375,-9.9375z" fill="url(#color-1)" stroke="none" stroke-width="0" stroke-linecap="butt"/><path d="M233.81252,214.20129c0,-5.48833 4.44917,-9.9375 9.9375,-9.9375c5.48833,0 9.9375,4.44917 9.9375,9.9375c0,5.48833 -4.44917,9.9375 -9.9375,9.9375c-5.48833,0 -9.9375,-4.44917 -9.9375,-9.9375z" fill="url(#color-2)" stroke="none" stroke-width="0" stroke-linecap="butt"/><path d="M203.97864,207.4245c-0.60585,9.1808 1.10485,15.66704 2.04789,20.50031c1.28839,6.60322 2.01043,9.90453 1.40138,10.78498c-2.33253,3.3719 -7.68047,1.93559 -14.38842,-4.71056c-4.78745,-4.74333 -8.2396,-11.37724 -8.10538,-20.55575c0.08685,-23.22053 19.66232,-38.0013 23.86018,-36.68189c1.9707,0.6194 -3.59257,12.12878 -4.81565,30.66291z" fill="#ffce39" stroke="#594942" stroke-width="2.5" stroke-linecap="butt"/></g></g></svg>