<svg version="1.1" xmlns="http://www.w3.org/2000/svg" xmlns:xlink="http://www.w3.org/1999/xlink" width="105.06116" height="97.26489" viewBox="0,0,105.06116,97.26489"><g transform="translate(-187.46942,-147.10756)"><g data-paper-data="{&quot;isPaintingLayer&quot;:true}" fill-rule="nonzero" stroke-linejoin="miter" stroke-miterlimit="10" stroke-dasharray="" stroke-dashoffset="0" style="mix-blend-mode: normal"><path d="M285.19472,199.84433c10.8646,12.77739 4.9999,23.85806 -0.77868,22.21759c-6.16467,-1.75008 -4.34024,-5.98261 -11.43651,-16.64212c-3.18144,-4.77893 -10.45325,-15.73092 -4.13433,-17.00833c3.36196,-0.67964 11.76317,6.03905 16.34952,11.43286z" data-paper-data="{&quot;index&quot;:null}" fill="#ffce39" stroke="#594942" stroke-width="2.5" stroke-linecap="butt"/><path d="M238.58362,230.67801c0,-3.43644 3.45245,-3.22222 6.88889,-3.22222c3.43644,0 6.88889,-0.21422 6.88889,3.22222c0,3.43644 0.65867,11.33333 -2.77777,11.33333c-3.43644,0 -11,-7.89689 -11,-11.33333z" fill="#ffce39" stroke="#594942" stroke-width="2.5" stroke-linecap="butt"/><path d="M226.25029,231.90023c0,-3.43644 2.78578,-3.22222 6.22222,-3.22222c3.43644,0 6.22222,-0.21422 6.22222,3.22222c0,3.43644 -3.00801,11.22222 -6.44444,11.22222c-3.43644,0 -6,-7.78578 -6,-11.22222z" fill="#ffce39" stroke="#594942" stroke-width="2.5" stroke-linecap="butt"/><path d="M239.20743,230.88074c-2.54962,-0.62024 -2.93689,-1.39427 -6.68621,-1.36684c-7.42531,0.05434 -14.46688,2.63739 -18.97219,-0.29632c-3.96669,-2.58298 -6.88132,-6.76731 -8.88274,-11.59929c-0.72869,-1.75926 -7.01276,-18.956 -7.08351,-19.98705c-0.32959,-4.8035 -0.48587,-10.92751 1.68665,-23.68092c0.79476,-4.66553 1.86828,-13.44654 8.32521,-18.3229c5.01398,-3.78662 12.20845,-7.60379 23.29455,-7.2466c15.48255,0.49884 33.73377,4.46317 45.33082,22.74302c0.66176,1.04309 13.6982,36.27549 -5.99542,51.54564c-12.99743,10.07802 -29.25178,8.64071 -31.01716,8.21125z" fill="#ffce39" stroke="#594942" stroke-width="2.5" stroke-linecap="butt"/><path d="M235.99042,229.86594c-1.07715,-0.27336 -2.45493,-0.45704 -4.50408,-0.34511c-6.24647,0.34119 -10.80094,12.6256 -15.77436,12.16829c-4.95296,-0.45542 -2.02383,-12.35275 -3.4337,-13.42185c-4.17835,-3.16845 -6.7774,-8.8337 -6.7774,-8.8337" data-paper-data="{&quot;index&quot;:null}" fill="#ffce39" stroke="#594942" stroke-width="2.5" stroke-linecap="butt"/><g stroke="none" stroke-width="0" stroke-linecap="butt"><path d="M231.64751,201.08082c0,-3.78315 3.06685,-6.85 6.85,-6.85c3.78315,0 6.85,3.06685 6.85,6.85c0,3.78315 -3.06685,6.85 -6.85,6.85c-3.78315,0 -6.85,-3.06685 -6.85,-6.85z" fill="#ffffff"/><path d="M233.94751,200.83082c0,-2.81665 2.28335,-5.1 5.1,-5.1c2.81665,0 5.1,2.28335 5.1,5.1c0,2.81665 -2.28335,5.1 -5.1,5.1c-2.81665,0 -5.1,-2.28335 -5.1,-5.1z" fill="#594942"/></g><g stroke="none" stroke-width="0" stroke-linecap="butt"><path d="M260.39751,201.08082c0,-3.78315 3.06685,-6.85 6.85,-6.85c3.78315,0 6.85,3.06685 6.85,6.85c0,3.78315 -3.06685,6.85 -6.85,6.85c-3.78315,0 -6.85,-3.06685 -6.85,-6.85z" fill="#ffffff"/><path d="M262.69751,200.83082c0,-2.81665 2.28335,-5.1 5.1,-5.1c2.81665,0 5.1,2.28335 5.1,5.1c0,2.81665 -2.28335,5.1 -5.1,5.1c-2.81665,0 -5.1,-2.28335 -5.1,-5.1z" fill="#594942"/></g><path d="M258.41001,220.23132c0,0 -3.51625,-0.40557 -4.91444,-0.88495c-1.50989,-0.51768 -3.83556,-2.11505 -3.83556,-2.11505" fill="none" stroke="#594942" stroke-width="1.25" stroke-linecap="round"/><path d="M217.63544,196.73557c5.74459,2.92578 -4.19879,11.52546 -8.54567,15.27571c-9.69581,8.36501 -9.07374,12.93184 -15.48193,12.96394c-6.00685,0.03009 -8.68391,-12.21774 5.21027,-21.61205c5.86524,-3.96568 15.76094,-8.18425 18.81733,-6.6276z" fill="#ffce39" stroke="#594942" stroke-width="2.5" stroke-linecap="butt"/></g></g></svg>