<svg version="1.1" xmlns="http://www.w3.org/2000/svg" xmlns:xlink="http://www.w3.org/1999/xlink" width="105.06116" height="126.21828" viewBox="0,0,105.06116,126.21828"><g transform="translate(-187.46942,-118.15417)"><g data-paper-data="{&quot;isPaintingLayer&quot;:true}" fill-rule="nonzero" stroke-linejoin="miter" stroke-miterlimit="10" stroke-dasharray="" stroke-dashoffset="0" style="mix-blend-mode: normal"><path d="M285.19472,199.84433c10.8646,12.77739 4.9999,23.85806 -0.77868,22.21759c-6.16467,-1.75008 -4.34024,-5.98261 -11.43651,-16.64212c-3.18144,-4.77893 -10.45325,-15.73092 -4.13433,-17.00833c3.36196,-0.67964 11.76317,6.03905 16.34952,11.43286z" data-paper-data="{&quot;index&quot;:null}" fill="#5eff3e" stroke="#206013" stroke-width="2.5" stroke-linecap="butt"/><path d="M238.58362,230.67801c0,-3.43644 3.45245,-3.22222 6.88889,-3.22222c3.43644,0 6.88889,-0.21422 6.88889,3.22222c0,3.43644 0.65867,11.33333 -2.77777,11.33333c-3.43644,0 -11,-7.89689 -11,-11.33333z" fill="#5eff3e" stroke="#206013" stroke-width="2.5" stroke-linecap="butt"/><path d="M226.25029,231.90023c0,-3.43644 2.78578,-3.22222 6.22222,-3.22222c3.43644,0 6.22222,-0.21422 6.22222,3.22222c0,3.43644 -3.00801,11.22222 -6.44444,11.22222c-3.43644,0 -6,-7.78578 -6,-11.22222z" fill="#5eff3e" stroke="#206013" stroke-width="2.5" stroke-linecap="butt"/><path d="M201.22251,201.38082c-0.4196,-9.03079 6.56324,-17.91626 7.35529,-19.02982c0.27424,-0.38557 -2.26133,-9.21776 -4.36703,-11.9879c-3.82113,-5.02686 -6.92647,-14.72819 6.72152,-6.79014c4.27909,2.48884 -9.89915,-18.11169 1.30477,-16.89709c4.88111,0.52915 9.3631,11.60778 14.33832,11.69064c1.80187,0.03001 5.48411,-1.43582 6.34084,-4.39161c1.50882,-5.20555 -1.44285,-15.63416 -2.26719,-32.6533c-0.03856,-0.79603 12.94311,-0.78846 24.8333,-1.92308c0.1639,-0.01564 0.35586,6.25357 0.45932,7.65217c0.01294,0.17491 -13.70893,0.28232 -13.68234,0.8196c0.00653,0.13191 0.06989,4.95067 0.18967,5.3141c0.07664,0.23255 8.37425,-0.18383 8.38489,0.13381c0.00364,0.1088 0.79167,5.85081 0.47391,5.94246c-0.3534,0.10193 -7.39545,0.5368 -7.40406,0.69694c-0.93147,17.33874 9.76897,16.55874 10.15808,16.45891c5.01933,-1.28776 1.90812,-14.64274 7.40209,-13.956c3.72095,0.46511 6.32991,12.56981 9.69862,30.82102c0.02622,0.14204 10.72476,11.49121 10.685,25.59927c-0.0519,18.41691 -12.89743,32.62929 -32.4,32.75c-13.86526,0.08582 -10.58091,-2.16334 -16.92629,-2.11691c-7.42531,0.05434 -14.46688,2.63739 -18.97219,-0.29632c-8.12622,-5.29152 -11.8371,-17.30357 -12.32651,-27.83677z" fill="#5eff3e" stroke="#206013" stroke-width="2.5" stroke-linecap="butt"/><path d="M217.63544,196.73557c5.74459,2.92578 -4.19879,11.52546 -8.54567,15.27571c-9.69581,8.36501 -9.07374,12.93184 -15.48193,12.96394c-6.00685,0.03009 -8.68391,-12.21774 5.21027,-21.61205c5.86524,-3.96568 15.76094,-8.18425 18.81733,-6.6276z" fill="#5eff3e" stroke="#206013" stroke-width="2.5" stroke-linecap="butt"/><path d="M239.02201,230.83823c-1.85373,-0.45434 -3.1735,-1.55567 -7.53567,-1.3174c-6.24647,0.34119 -10.80094,12.6256 -15.77436,12.16829c-4.95296,-0.45542 -2.02383,-12.35275 -3.4337,-13.42185c-4.17835,-3.16845 -6.7774,-8.8337 -6.7774,-8.8337" data-paper-data="{&quot;index&quot;:null}" fill="#5eff3e" stroke="#206013" stroke-width="2.5" stroke-linecap="butt"/><g stroke="none" stroke-width="0" stroke-linecap="butt"><path d="M231.64751,201.08082c0,-3.78315 3.06685,-6.85 6.85,-6.85c3.78315,0 6.85,3.06685 6.85,6.85c0,3.78315 -3.06685,6.85 -6.85,6.85c-3.78315,0 -6.85,-3.06685 -6.85,-6.85z" fill="#ffffff"/><path d="M233.94751,200.83082c0,-2.81665 2.28335,-5.1 5.1,-5.1c2.81665,0 5.1,2.28335 5.1,5.1c0,2.81665 -2.28335,5.1 -5.1,5.1c-2.81665,0 -5.1,-2.28335 -5.1,-5.1z" fill="#206013"/></g><g stroke="none" stroke-width="0" stroke-linecap="butt"><path d="M260.39751,201.08082c0,-3.78315 3.06685,-6.85 6.85,-6.85c3.78315,0 6.85,3.06685 6.85,6.85c0,3.78315 -3.06685,6.85 -6.85,6.85c-3.78315,0 -6.85,-3.06685 -6.85,-6.85z" fill="#ffffff"/><path d="M262.69751,200.83082c0,-2.81665 2.28335,-5.1 5.1,-5.1c2.81665,0 5.1,2.28335 5.1,5.1c0,2.81665 -2.28335,5.1 -5.1,5.1c-2.81665,0 -5.1,-2.28335 -5.1,-5.1z" fill="#206013"/></g><path d="M220.97553,218.98666c0,0 -1.32635,-2.91418 -1.45042,-4.51162c-0.14053,-1.80941 0.65042,-5.78838 0.65042,-5.78838" fill="none" stroke="#206013" stroke-width="1.25" stroke-linecap="round"/><path d="M226.37553,218.68666c0,0 -1.76186,-3.11648 -1.79416,-4.79627c-0.03425,-1.78095 1.59416,-5.60373 1.59416,-5.60373" fill="none" stroke="#206013" stroke-width="1.25" stroke-linecap="round"/><path d="M229.97553,211.48666c0,0 -4.53393,0.95041 -6.6,1c-4.16667,0.1 -5.9,-0.8 -5.9,-0.8" fill="none" stroke="#206013" stroke-width="1.25" stroke-linecap="round"/><path d="M229.97553,215.38666c0,0 -4.73537,0.90415 -6.80111,0.95495c-1.99872,0.04914 -5.39889,-0.65495 -5.39889,-0.65495" fill="none" stroke="#206013" stroke-width="1.25" stroke-linecap="round"/><path d="M272.97553,188.64493c0,0 -2.60153,13.59497 -17.91348,13.93418c-15.49935,0.34336 -20.08652,-12.53418 -20.08652,-12.53418" fill="#5eff3e" stroke="#206013" stroke-width="1.25" stroke-linecap="round"/><path d="M265.67553,188.04493c0,0 -5.64061,0.90227 -9.20618,1.06216c-3.84644,0.17249 -13.09382,-0.06216 -13.09382,-0.06216" fill="none" stroke="#206013" stroke-width="1.25" stroke-linecap="round"/><path d="M265.97553,193.64493c0,0 -4.77493,1.06886 -8.00356,1.22741c-4.05018,0.19889 -14.39644,-0.12741 -14.39644,-0.12741" fill="none" stroke="#206013" stroke-width="1.25" stroke-linecap="round"/><path d="M249.66001,217.23132c0,0 3.51625,0.40557 4.91444,0.88495c1.50989,0.51768 3.83556,2.11505 3.83556,2.11505" data-paper-data="{&quot;index&quot;:null}" fill="none" stroke="#206013" stroke-width="1.25" stroke-linecap="round"/></g></g></svg>