<svg version="1.1" xmlns="http://www.w3.org/2000/svg" xmlns:xlink="http://www.w3.org/1999/xlink" width="105.06116" height="122.88853" viewBox="0,0,105.06116,122.88853"><g transform="translate(-187.46942,-121.48393)"><g data-paper-data="{&quot;isPaintingLayer&quot;:true}" fill-rule="nonzero" stroke-linecap="butt" stroke-linejoin="miter" stroke-miterlimit="10" stroke-dasharray="" stroke-dashoffset="0" style="mix-blend-mode: normal"><path d="M285.19472,199.84433c10.8646,12.77739 4.9999,23.85806 -0.77868,22.21759c-6.16467,-1.75008 -4.34024,-5.98261 -11.43651,-16.64212c-3.18144,-4.77893 -10.45325,-15.73092 -4.13433,-17.00833c3.36196,-0.67964 11.76317,6.03905 16.34952,11.43286z" data-paper-data="{&quot;index&quot;:null}" fill="#ffce39" stroke="#594942" stroke-width="2.5"/><path d="M238.58362,230.67801c0,-3.43644 3.45245,-3.22222 6.88889,-3.22222c3.43644,0 6.88889,-0.21422 6.88889,3.22222c0,3.43644 0.65867,11.33333 -2.77777,11.33333c-3.43644,0 -11,-7.89689 -11,-11.33333z" fill="#ffce39" stroke="#594942" stroke-width="2.5"/><path d="M226.25029,231.90023c0,-3.43644 2.78578,-3.22222 6.22222,-3.22222c3.43644,0 6.22222,-0.21422 6.22222,3.22222c0,3.43644 -3.00801,11.22222 -6.44444,11.22222c-3.43644,0 -6,-7.78578 -6,-11.22222z" fill="#ffce39" stroke="#594942" stroke-width="2.5"/><path d="M201.22251,201.38082c-0.4196,-9.03079 6.56324,-17.91626 7.35529,-19.02982c0.27424,-0.38557 -2.26133,-9.21776 -4.36703,-11.9879c-3.82113,-5.02686 -6.92647,-14.72819 6.72152,-6.79014c4.27909,2.48884 -9.89915,-18.11169 1.30477,-16.89709c4.88111,0.52915 10.02977,11.10778 15.00499,11.19064c3.78618,0.06305 4.92904,-3.04737 -5.67635,-24.04491c-9.67752,-19.16045 2.15406,-8.58885 6.41663,-4.25641c9.5399,9.69629 22.37125,27.80271 26.07947,26.85133c5.01933,-1.28776 1.90812,-14.64274 7.40209,-13.956c3.72095,0.46511 6.32991,12.56981 9.69862,30.82102c0.02622,0.14204 10.72476,11.49121 10.685,25.59927c-0.0519,18.41691 -12.89743,32.62929 -32.4,32.75c-13.86526,0.08582 -10.58091,-2.16334 -16.92629,-2.11691c-7.42531,0.05434 -14.46688,2.63739 -18.97219,-0.29632c-8.12622,-5.29152 -11.8371,-17.30357 -12.32651,-27.83677z" fill="#ffce39" stroke="#594942" stroke-width="2.5"/><path d="M217.63544,196.73557c5.74459,2.92578 -4.19879,11.52546 -8.54567,15.27571c-9.69581,8.36501 -9.07374,12.93184 -15.48193,12.96394c-6.00685,0.03009 -8.68391,-12.21774 5.21027,-21.61205c5.86524,-3.96568 15.76094,-8.18425 18.81733,-6.6276z" fill="#ffce39" stroke="#594942" stroke-width="2.5"/><path d="M239.02201,230.83823c-1.85373,-0.45434 -3.1735,-1.55567 -7.53567,-1.3174c-6.24647,0.34119 -10.80094,12.6256 -15.77436,12.16829c-4.95296,-0.45542 -2.02383,-12.35275 -3.4337,-13.42185c-4.17835,-3.16845 -6.7774,-8.8337 -6.7774,-8.8337" data-paper-data="{&quot;index&quot;:null}" fill="#ffce39" stroke="#594942" stroke-width="2.5"/><g stroke="none" stroke-width="0"><path d="M231.64751,201.08082c0,-3.78315 3.06685,-6.85 6.85,-6.85c3.78315,0 6.85,3.06685 6.85,6.85c0,3.78315 -3.06685,6.85 -6.85,6.85c-3.78315,0 -6.85,-3.06685 -6.85,-6.85z" fill="#ffffff"/><path d="M233.94751,200.83082c0,-2.81665 2.28335,-5.1 5.1,-5.1c2.81665,0 5.1,2.28335 5.1,5.1c0,2.81665 -2.28335,5.1 -5.1,5.1c-2.81665,0 -5.1,-2.28335 -5.1,-5.1z" fill="#594942"/></g><g stroke="none" stroke-width="0"><path d="M260.39751,201.08082c0,-3.78315 3.06685,-6.85 6.85,-6.85c3.78315,0 6.85,3.06685 6.85,6.85c0,3.78315 -3.06685,6.85 -6.85,6.85c-3.78315,0 -6.85,-3.06685 -6.85,-6.85z" fill="#ffffff"/><path d="M262.69751,200.83082c0,-2.81665 2.28335,-5.1 5.1,-5.1c2.81665,0 5.1,2.28335 5.1,5.1c0,2.81665 -2.28335,5.1 -5.1,5.1c-2.81665,0 -5.1,-2.28335 -5.1,-5.1z" fill="#594942"/></g><path d="M251.64342,217.24132c0,-2.99226 1.2592,-5.41797 2.8125,-5.41797c1.5533,0 2.8125,2.42571 2.8125,5.41797c0,2.99226 -1.2592,5.41797 -2.8125,5.41797c-1.5533,0 -2.8125,-2.42571 -2.8125,-5.41797z" fill="#594942" stroke="none" stroke-width="0"/></g></g></svg>